# xmcd
#
# Track frame offsets:
#	150
#	20627
#	42279
#	60089
#	73594
#	91124
#	112344
#	134825
#	157312
#	172846
#	193198
#	209207
#	221163
#	243045
#	261913
#
# Disc length: 3691 seconds
#
# Revision: 1
# Processed by: cddbd v1.5.2PL0 Copyright (c) Steve Scherf et al.
# Submitted via: audiograbber 1.83.01
#
DISCID=e80e690f
DTITLE=Various Artist - Rock Hard Dynamit Vol. 60 05.08.
DYEAR=2008
DGENRE=Metal
TTITLE0=Testament - More than meets the eye
TTITLE1=In Flames - Alias
TTITLE2=Warrel Dane - Messenger
TTITLE3=The Hellacopters - In the sign of the octopus
TTITLE4=Circle II Circle - Fatal warning
TTITLE5=Deicide - In the eyes of god
TTITLE6=Communic - On ancient ground
TTITLE7=My uncle the wolf - March of the hung (edit)
TTITLE8=Firewind - Mercenary Man
TTITLE9=Headhunter - Silverskull
TTITLE10=Grave - Bloodpath
TTITLE11=Emil Bulls - To end all wars
TTITLE12=Viron - On the run (edit)
TTITLE13=X-World/5 - Cyber Christ
TTITLE14=Tri State Corner - Back Home
EXTD=
EXTT0=
EXTT1=
EXTT2=
EXTT3=
EXTT4=
EXTT5=
EXTT6=
EXTT7=
EXTT8=
EXTT9=
EXTT10=
EXTT11=
EXTT12=
EXTT13=
EXTT14=
PLAYORDER=
